<?xml version="1.0" encoding="utf-8"?>
<!-- Generator: Adobe Illustrator 15.0.0, SVG Export Plug-In . SVG Version: 6.00 Build 0)  -->
<!DOCTYPE svg PUBLIC "-//W3C//DTD SVG 1.1//EN" "http://www.w3.org/Graphics/SVG/1.1/DTD/svg11.dtd">
<svg version="1.1" id="Camada_1" xmlns="http://www.w3.org/2000/svg" xmlns:xlink="http://www.w3.org/1999/xlink" x="0px" y="0px"
	 width="64px" height="64px" viewBox="0 0 64 64" enable-background="new 0 0 64 64" xml:space="preserve">
<g>
	<polygon fill="#01ADEE" points="34.999,57 31.999,57 28.999,57 31.999,64 	"/>
	<rect x="29" y="36" fill="#01ADEE" width="6" height="21"/>
	<path fill="#01ADEE" d="M53.382,40C51.053,32.542,42.366,27,32,27s-19.053,5.542-21.382,13H53.382z"/>
	<path fill="#01ADEE" d="M42,20.182C42,14.471,44.36,9.514,47.826,7H16.174C19.64,9.514,22,14.471,22,20.182
		c0,6.331-2.905,11.729-7,13.906V36h34v-1.912C44.905,31.912,42,26.513,42,20.182z"/>
	<path fill="#01ADEE" d="M51,3.5C51,5.432,49.433,7,47.5,7h-31C14.567,7,13,5.432,13,3.5l0,0C13,1.567,14.567,0,16.5,0h31
		C49.433,0,51,1.567,51,3.5L51,3.5z"/>
</g>
</svg>
