<?xml version="1.0" encoding="UTF-8" standalone="no"?>
<!-- Created with Inkscape (http://www.inkscape.org/) -->

<svg
   xmlns:dc="http://purl.org/dc/elements/1.1/"
   xmlns:cc="http://creativecommons.org/ns#"
   xmlns:rdf="http://www.w3.org/1999/02/22-rdf-syntax-ns#"
   xmlns:svg="http://www.w3.org/2000/svg"
   xmlns="http://www.w3.org/2000/svg"
   xmlns:sodipodi="http://sodipodi.sourceforge.net/DTD/sodipodi-0.dtd"
   xmlns:inkscape="http://www.inkscape.org/namespaces/inkscape"
   width="210mm"
   height="297mm"
   viewBox="0 0 744.09448819 1052.3622047"
   id="svg2"
   version="1.1"
   inkscape:version="0.91 r13725"
   sodipodi:docname="alloy-logo.svg"
   inkscape:export-filename="C:\Users\Liferay\Desktop\Liferay\alloyui.com\src\files\website\img\alloy-logo.png"
   inkscape:export-xdpi="8.5386534"
   inkscape:export-ydpi="8.5386534">
  <defs
     id="defs4">
    <clipPath
       id="clipPath3350"
       clipPathUnits="userSpaceOnUse">
      <path
         inkscape:connector-curvature="0"
         id="path3352"
         d="M 0,768 1024,768 1024,0 0,0 0,768 Z" />
    </clipPath>
    <clipPath
       id="clipPath3430"
       clipPathUnits="userSpaceOnUse">
      <path
         inkscape:connector-curvature="0"
         id="path3432"
         d="M 0,768 1024,768 1024,0 0,0 0,768 Z" />
    </clipPath>
  </defs>
  <sodipodi:namedview
     id="base"
     pagecolor="#ffffff"
     bordercolor="#666666"
     borderopacity="1.0"
     inkscape:pageopacity="0.0"
     inkscape:pageshadow="2"
     inkscape:zoom="1.5789732"
     inkscape:cx="266.28232"
     inkscape:cy="526.181"
     inkscape:document-units="px"
     inkscape:current-layer="layer1"
     showgrid="false"
     inkscape:window-width="1920"
     inkscape:window-height="1125"
     inkscape:window-x="1911"
     inkscape:window-y="-9"
     inkscape:window-maximized="1" />
  <metadata
     id="metadata7">
    <rdf:RDF>
      <cc:Work
         rdf:about="">
        <dc:format>image/svg+xml</dc:format>
        <dc:type
           rdf:resource="http://purl.org/dc/dcmitype/StillImage" />
        <dc:title></dc:title>
      </cc:Work>
    </rdf:RDF>
  </metadata>
  <g
     inkscape:label="Layer 1"
     inkscape:groupmode="layer"
     id="layer1">
    <g
       transform="matrix(3.0375,0,0,-3.0375,-1071.6569,1831.5324)"
       inkscape:label="sticker-1"
       id="g3424"
       style="fill:#01adee;fill-opacity:1">
      <g
         id="g3426"
         style="fill:#01adee;fill-opacity:1">
        <g
           clip-path="url(#clipPath3430)"
           id="g3428"
           style="fill:#01adee;fill-opacity:1">
          <g
             transform="translate(421.1572,525.9399)"
             id="g3434"
             style="fill:#01adee;fill-opacity:1">
            <path
               inkscape:connector-curvature="0"
               id="path3436"
               style="fill:#01adee;fill-opacity:1;fill-rule:nonzero;stroke:none"
               d="m 0,0 c -12.181,-25.281 -11.08,-54.872 2.953,-79.172 6.621,-11.472 15.894,-21.275 26.905,-28.479 l -8.914,30.859 28.966,7.173 3.944,2.633 c 12.657,6.772 26.996,10.351 41.455,10.351 l 0.045,0 c 25.217,-0.013 48.964,-10.803 65.535,-29.32 L 110.719,0.967 0.537,0.967 0,0 Z" />
          </g>
          <g
             transform="translate(586.5254,428.9106)"
             id="g3438"
             style="fill:#01adee;fill-opacity:1">
            <path
               inkscape:connector-curvature="0"
               id="path3440"
               style="fill:#01adee;fill-opacity:1;fill-rule:nonzero;stroke:none"
               d="m 0,0 c -15.794,23.205 -41.965,37.058 -70.015,37.081 l -0.045,0 c -13.288,0 -26.458,-3.143 -38.234,-9.104 l 31.249,-7.74 -8.421,-29.16 0.333,-3.488 -0.007,-0.104 c -0.391,-14.376 -4.371,-28.614 -11.548,-41.189 -12.632,-22.148 -34.081,-37.541 -58.705,-42.623 l 100.744,0 L 0.447,-0.749 0,0 Z" />
          </g>
          <g
             transform="translate(420.0977,334.3652)"
             id="g3442"
             style="fill:#01adee;fill-opacity:1">
            <path
               inkscape:connector-curvature="0"
               id="path3444"
               style="fill:#01adee;fill-opacity:1;fill-rule:nonzero;stroke:none"
               d="m 0,0 c 27.975,2.234 52.97,18.117 66.859,42.475 6.476,11.358 10.251,24.115 11,37.056 L 55.687,56.495 34.335,78.682 31.022,79.916 30.877,80 C 18.66,87.584 8.385,98.219 1.146,110.751 -11.537,132.72 -14.051,158.857 -6.151,182.582 L -56.483,95.362 -1.405,-0.041 0,0 Z" />
          </g>
        </g>
      </g>
    </g>
  </g>
</svg>
