<?xml version="1.0" encoding="utf-8"?>
<!-- Generator: Adobe Illustrator 15.0.0, SVG Export Plug-In . SVG Version: 6.00 Build 0)  -->
<!DOCTYPE svg PUBLIC "-//W3C//DTD SVG 1.1//EN" "http://www.w3.org/Graphics/SVG/1.1/DTD/svg11.dtd">
<svg version="1.1" id="Camada_1" xmlns="http://www.w3.org/2000/svg" xmlns:xlink="http://www.w3.org/1999/xlink" x="0px" y="0px"
	 width="64px" height="64px" viewBox="0 0 64 64" enable-background="new 0 0 64 64" xml:space="preserve">
<g>
	<g>
		<path fill="#01ADEE" d="M59,10.5c1.103,0,2,0.897,2,2v12c0,1.103-0.897,2-2,2H5c-1.103,0-2-0.897-2-2v-12c0-1.103,0.897-2,2-2H59
			 M59,7.5H5c-2.762,0-5,2.238-5,5v12c0,2.762,2.238,5,5,5h54c2.762,0,5-2.238,5-5v-12C64,9.738,61.762,7.5,59,7.5L59,7.5z"/>
	</g>
	<g>
		<path fill="#01ADEE" d="M11.678,20.568H8.104l-0.809,2.197H6.117l3.299-8.531h0.99l3.246,8.531h-1.178L11.678,20.568z
			 M8.461,19.602h2.871l-1.406-3.885H9.891L8.461,19.602z"/>
		<path fill="#01ADEE" d="M14.824,22.766v-8.531h2.783c0.891,0,1.588,0.192,2.092,0.577s0.756,0.962,0.756,1.731
			c0,0.379-0.121,0.718-0.363,1.017s-0.561,0.521-0.955,0.665c0.516,0.109,0.921,0.361,1.216,0.756s0.442,0.854,0.442,1.377
			c0,0.781-0.253,1.378-0.759,1.79s-1.192,0.618-2.06,0.618H14.824z M15.979,17.861h1.869c0.43,0,0.779-0.118,1.049-0.354
			s0.404-0.565,0.404-0.987c0-0.461-0.146-0.806-0.437-1.034s-0.71-0.343-1.257-0.343h-1.629V17.861z M15.979,18.77v3.088h1.998
			c0.523,0,0.932-0.129,1.225-0.389c0.293-0.258,0.439-0.625,0.439-1.1c0-0.498-0.122-0.89-0.366-1.174
			c-0.244-0.283-0.62-0.426-1.128-0.426H15.979z"/>
		<path fill="#01ADEE" d="M28.523,20.029l0.012,0.035c0.016,0.801-0.266,1.472-0.844,2.013s-1.342,0.812-2.291,0.812
			c-0.965,0-1.751-0.342-2.358-1.025s-0.911-1.551-0.911-2.602v-1.518c0-1.051,0.304-1.919,0.911-2.604s1.394-1.028,2.358-1.028
			s1.732,0.257,2.303,0.771s0.848,1.194,0.832,2.042l-0.012,0.035h-1.107c0-0.598-0.176-1.07-0.527-1.418S26.041,15.02,25.4,15.02
			c-0.645,0-1.158,0.26-1.541,0.778c-0.383,0.52-0.574,1.163-0.574,1.933v1.527c0,0.777,0.191,1.425,0.574,1.944
			c0.383,0.519,0.896,0.778,1.541,0.778c0.641,0,1.137-0.173,1.488-0.519s0.527-0.823,0.527-1.433H28.523z"/>
		<path fill="#01ADEE" d="M30.094,22.766v-8.531h2.619c1.117,0,2.014,0.343,2.689,1.028s1.014,1.571,1.014,2.657v1.166
			c0,1.09-0.338,1.976-1.014,2.657s-1.572,1.022-2.689,1.022H30.094z M31.248,15.143v6.715h1.465c0.789,0,1.411-0.26,1.866-0.778
			c0.455-0.52,0.683-1.185,0.683-1.997v-1.176c0-0.805-0.228-1.466-0.683-1.985c-0.455-0.519-1.077-0.778-1.866-0.778H31.248z"/>
		<path fill="#01ADEE" d="M43.061,18.811h-3.908v3.047h4.506v0.908h-5.66v-8.531h5.596v0.908h-4.441v2.76h3.908V18.811z"/>
	</g>
	<polygon fill="#01ADEE" points="32,29.5 28,34.5 32,34.5 36,34.5 	"/>
	<path fill="#01ADEE" d="M39,34.5H25c-2.762,0-5,2.238-5,5v12c0,2.762,2.238,5,5,5h14c2.762,0,5-2.238,5-5v-12
		C44,36.738,41.762,34.5,39,34.5z M34.305,49.787c-0.555,0.627-1.363,0.941-2.425,0.941c-0.873,0-1.6-0.238-2.18-0.715
		c-0.581-0.479-0.859-1.178-0.835-2.104l0.014-0.041h1.26c0,0.559,0.162,0.992,0.485,1.301c0.323,0.309,0.742,0.461,1.256,0.461
		c0.59,0,1.048-0.207,1.374-0.621c0.325-0.416,0.488-0.984,0.488-1.705c0-0.658-0.165-1.199-0.496-1.625
		c-0.33-0.424-0.785-0.637-1.366-0.637c-0.547,0-0.944,0.084-1.189,0.248c-0.246,0.166-0.425,0.418-0.538,0.758l-1.161-0.121
		l0.595-5.656h5.162v1.238h-3.979l-0.34,2.896c0.217-0.16,0.459-0.295,0.726-0.4c0.267-0.107,0.575-0.164,0.923-0.174
		c0.949-0.01,1.695,0.299,2.241,0.928c0.545,0.629,0.817,1.473,0.817,2.535C35.137,48.328,34.859,49.158,34.305,49.787z"/>
</g>
</svg>
