<?xml version="1.0" encoding="utf-8"?>
<!-- Generator: Adobe Illustrator 15.0.0, SVG Export Plug-In . SVG Version: 6.00 Build 0)  -->
<!DOCTYPE svg PUBLIC "-//W3C//DTD SVG 1.1//EN" "http://www.w3.org/Graphics/SVG/1.1/DTD/svg11.dtd">
<svg version="1.1" id="Camada_1" xmlns="http://www.w3.org/2000/svg" xmlns:xlink="http://www.w3.org/1999/xlink" x="0px" y="0px"
	 width="64px" height="64px" viewBox="0 0 64 64" enable-background="new 0 0 64 64" xml:space="preserve">
<g>
	<path fill="#01ADEE" d="M59,0H5C2.238,0,0,2.238,0,5v9c0,2.761,2.238,5,5,5h54c2.762,0,5-2.239,5-5V5C64,2.238,61.762,0,59,0z
		 M55,13l-5-7h5h5L55,13z"/>
	<rect x="6" y="26" fill="#01ADEE" width="52" height="8"/>
	<rect x="6" y="38" fill="#01ADEE" width="52" height="8"/>
	<rect x="6" y="50" fill="#01ADEE" width="52" height="8"/>
	<path fill="#01ADEE" d="M59,20H5c-2.761,0-5,2.238-5,5v34c0,2.762,2.239,5,5,5h54c2.762,0,5-2.238,5-5V25
		C64,22.238,61.762,20,59,20z M62,58c0,2.209-1.791,4-4,4H6c-2.209,0-4-1.791-4-4V26c0-2.209,1.791-4,4-4h52c2.209,0,4,1.791,4,4V58
		z"/>
</g>
</svg>
