<?xml version="1.0" encoding="utf-8"?>
<!-- Generator: Adobe Illustrator 15.0.0, SVG Export Plug-In . SVG Version: 6.00 Build 0)  -->
<!DOCTYPE svg PUBLIC "-//W3C//DTD SVG 1.1//EN" "http://www.w3.org/Graphics/SVG/1.1/DTD/svg11.dtd">
<svg version="1.1" id="Camada_1" xmlns="http://www.w3.org/2000/svg" xmlns:xlink="http://www.w3.org/1999/xlink" x="0px" y="0px"
	 width="64px" height="64px" viewBox="0 0 64 64" enable-background="new 0 0 64 64" xml:space="preserve">
<g>
	<g>
		<path fill="#01ADEE" d="M59,37c1.103,0,2,0.897,2,2v20c0,1.103-0.897,2-2,2H5c-1.103,0-2-0.897-2-2V39c0-1.103,0.897-2,2-2H59
			 M59,34H5c-2.762,0-5,2.238-5,5v20c0,2.762,2.238,5,5,5h54c2.762,0,5-2.238,5-5V39C64,36.238,61.762,34,59,34L59,34z"/>
	</g>
	<polygon fill="#01ADEE" points="32,34 28,29 32,29 36,29 	"/>
	<path fill="#01ADEE" d="M54,0H10C7.238,0,5,2.238,5,5v7v2v1v3v6c0,2.762,2.238,5,5,5h44c2.762,0,5-2.238,5-5v-6v-3v-1v-2V5
		C59,2.238,56.762,0,54,0z"/>
</g>
</svg>
