<?xml version="1.0" encoding="utf-8"?>
<!-- Generator: Adobe Illustrator 15.0.0, SVG Export Plug-In . SVG Version: 6.00 Build 0)  -->
<!DOCTYPE svg PUBLIC "-//W3C//DTD SVG 1.1//EN" "http://www.w3.org/Graphics/SVG/1.1/DTD/svg11.dtd">
<svg version="1.1" id="Camada_1" xmlns="http://www.w3.org/2000/svg" xmlns:xlink="http://www.w3.org/1999/xlink" x="0px" y="0px"
	 width="64px" height="64px" viewBox="0 0 64 64" enable-background="new 0 0 64 64" xml:space="preserve">
<g>
	<path fill="#01ADEE" d="M32,11.915l4.542,13.976l0.674,2.073h2.18h14.699l-11.894,8.645l-1.763,1.281l0.673,2.072l4.542,13.977
		l-11.89-8.637L32,44.02l-1.763,1.28l-11.89,8.637l4.545-13.975l0.674-2.073l-1.764-1.281L9.907,27.963h14.697h2.179l0.674-2.073
		L32,11.915 M32,2.209l-7.396,22.754H0.676l19.363,14.071l-7.401,22.757L32,47.728l19.359,14.063l-7.395-22.757l19.359-14.071
		H39.396L32,2.209L32,2.209z"/>
</g>
</svg>
