<?xml version="1.0" encoding="utf-8"?>
<!-- Generator: Adobe Illustrator 15.0.0, SVG Export Plug-In . SVG Version: 6.00 Build 0)  -->
<!DOCTYPE svg PUBLIC "-//W3C//DTD SVG 1.1//EN" "http://www.w3.org/Graphics/SVG/1.1/DTD/svg11.dtd">
<svg version="1.1" id="Camada_1" xmlns="http://www.w3.org/2000/svg" xmlns:xlink="http://www.w3.org/1999/xlink" x="0px" y="0px"
	 width="64px" height="64px" viewBox="0 0 64 64" enable-background="new 0 0 64 64" xml:space="preserve">
<g>
	<rect x="10.028" y="19" fill="#01ADEE" width="2" height="2"/>
	<rect x="10.028" y="23" fill="#01ADEE" width="2" height="2"/>
	<rect x="10.028" y="27" fill="#01ADEE" width="2" height="2"/>
	<rect x="62.028" y="23" fill="#01ADEE" width="2" height="2"/>
	<rect x="62.028" y="27" fill="#01ADEE" width="2" height="2"/>
	<rect x="14.028" y="27" fill="#01ADEE" width="2" height="2"/>
	<rect x="18.028" y="27" fill="#01ADEE" width="2" height="2"/>
	<rect x="22.028" y="27" fill="#01ADEE" width="2" height="2"/>
	<rect x="26.028" y="27" fill="#01ADEE" width="2" height="2"/>
	<rect x="30.028" y="27" fill="#01ADEE" width="2" height="2"/>
	<rect x="34.028" y="27" fill="#01ADEE" width="2" height="2"/>
	<rect x="38.028" y="27" fill="#01ADEE" width="2" height="2"/>
	<rect x="42.028" y="27" fill="#01ADEE" width="2" height="2"/>
	<rect x="46.028" y="27" fill="#01ADEE" width="2" height="2"/>
	<rect x="50.028" y="27" fill="#01ADEE" width="2" height="2"/>
	<rect x="54.028" y="27" fill="#01ADEE" width="2" height="2"/>
	<rect x="58.028" y="27" fill="#01ADEE" width="2" height="2"/>
	<rect x="14.028" y="19" fill="#01ADEE" width="2" height="2"/>
	<rect x="18.028" y="19" fill="#01ADEE" width="2" height="2"/>
	<rect x="22.028" y="19" fill="#01ADEE" width="2" height="2"/>
	<rect x="26.028" y="19" fill="#01ADEE" width="2" height="2"/>
	<rect x="30.028" y="19" fill="#01ADEE" width="2" height="2"/>
	<rect x="34.028" y="19" fill="#01ADEE" width="2" height="2"/>
	<rect x="38.028" y="19" fill="#01ADEE" width="2" height="2"/>
	<rect x="42.028" y="19" fill="#01ADEE" width="2" height="2"/>
	<rect x="46.028" y="19" fill="#01ADEE" width="2" height="2"/>
	<rect x="50.028" y="19" fill="#01ADEE" width="2" height="2"/>
	<rect x="54.028" y="19" fill="#01ADEE" width="2" height="2"/>
	<rect x="58.028" y="19" fill="#01ADEE" width="2" height="2"/>
	<rect x="62.028" y="19" fill="#01ADEE" width="2" height="2"/>
	<rect x="10.028" y="3" fill="#01ADEE" width="54" height="10"/>
	<rect x="10.028" y="35" opacity="0.5" fill="#01ADEE" width="54" height="10"/>
	<rect x="10.028" y="51" fill="#01ADEE" width="54" height="10"/>
	<g>
		<path fill="#01ADEE" d="M3.64,12.266H2.485V4.859L0.739,4.883V4.051l2.9-0.316V12.266z"/>
	</g>
	<g>
		<path fill="#01ADEE" d="M5.872,28.327H0.341v-0.796l2.795-3.101c0.5-0.559,0.84-1.002,1.018-1.33s0.266-0.664,0.266-1.008
			c0-0.426-0.123-0.784-0.371-1.075S3.47,20.581,3.06,20.581c-0.59,0-1.023,0.151-1.303,0.454s-0.42,0.728-0.42,1.274H0.229
			l-0.012-0.035c-0.02-0.734,0.225-1.352,0.732-1.852s1.211-0.75,2.109-0.75c0.766,0,1.377,0.224,1.832,0.671
			s0.682,1.017,0.682,1.708c0,0.465-0.137,0.931-0.412,1.397s-0.662,0.968-1.158,1.503L1.759,27.39l0.012,0.029h4.102V28.327z"/>
	</g>
	<g opacity="0.5">
		<path fill="#01ADEE" d="M1.923,39.467h1.008c0.512,0,0.875-0.128,1.088-0.384s0.318-0.612,0.318-1.069
			c0-0.488-0.121-0.859-0.363-1.113s-0.6-0.381-1.072-0.381c-0.449,0-0.809,0.132-1.08,0.396s-0.408,0.614-0.408,1.052H0.306
			l-0.012-0.035c-0.02-0.645,0.215-1.192,0.701-1.644s1.121-0.677,1.906-0.677c0.789,0,1.418,0.21,1.887,0.63
			s0.703,1.019,0.703,1.796c0,0.352-0.105,0.702-0.318,1.052s-0.533,0.616-0.959,0.8c0.512,0.168,0.875,0.432,1.088,0.791
			s0.318,0.762,0.318,1.207c0,0.777-0.254,1.389-0.764,1.834s-1.162,0.668-1.955,0.668c-0.777,0-1.42-0.21-1.93-0.63
			s-0.756-0.989-0.736-1.708l0.018-0.035h1.102c0,0.447,0.139,0.804,0.414,1.068s0.652,0.396,1.133,0.396
			c0.488,0,0.871-0.132,1.148-0.396s0.416-0.656,0.416-1.174c0-0.525-0.123-0.912-0.369-1.161s-0.635-0.374-1.166-0.374H1.923
			V39.467z"/>
	</g>
	<g>
		<path fill="#01ADEE" d="M4.952,57.395H6.13v0.908H4.952v1.963H3.804v-1.963h-3.832v-0.651l3.762-5.917h1.219V57.395z
			 M1.202,57.395h2.602v-4.002l-0.035-0.006L3.657,53.68L1.202,57.395z"/>
	</g>
</g>
</svg>
