<?xml version="1.0" encoding="utf-8"?>
<!-- Generator: Adobe Illustrator 15.0.0, SVG Export Plug-In . SVG Version: 6.00 Build 0)  -->
<!DOCTYPE svg PUBLIC "-//W3C//DTD SVG 1.1//EN" "http://www.w3.org/Graphics/SVG/1.1/DTD/svg11.dtd">
<svg version="1.1" id="Camada_1" xmlns="http://www.w3.org/2000/svg" xmlns:xlink="http://www.w3.org/1999/xlink" x="0px" y="0px"
	 width="64px" height="64px" viewBox="0 0 64 64" enable-background="new 0 0 64 64" xml:space="preserve">
<g>
	<path fill="#01ADEE" d="M38,52c0,2.762-2.238,5-5,5h-2c-2.761,0-5-2.238-5-5V14c0-2.762,2.239-5,5-5h2c2.762,0,5,2.238,5,5V52z"/>
	<polygon fill="#01ADEE" points="38,52 32,52 26,52 21,60 21,64 32,58 43,64 43,60 	"/>
	<polygon fill="#01ADEE" points="26,20 2,39 2,44 26,40 	"/>
	<polygon fill="#01ADEE" points="38,20 62,39 62,44 38,40 	"/>
	<ellipse fill="#01ADEE" cx="32" cy="12" rx="6" ry="12"/>
</g>
</svg>
