<?xml version="1.0" encoding="utf-8"?>
<!-- Generator: Adobe Illustrator 15.0.0, SVG Export Plug-In . SVG Version: 6.00 Build 0)  -->
<!DOCTYPE svg PUBLIC "-//W3C//DTD SVG 1.1//EN" "http://www.w3.org/Graphics/SVG/1.1/DTD/svg11.dtd">
<svg version="1.1" id="Camada_1" xmlns="http://www.w3.org/2000/svg" xmlns:xlink="http://www.w3.org/1999/xlink" x="0px" y="0px"
	 width="64px" height="64px" viewBox="0 0 64 64" enable-background="new 0 0 64 64" xml:space="preserve">
<g>
	<polygon fill="#01ADEE" points="28,1 28,4 32.112,7.908 36,4 36,1 	"/>
	<path fill="#01ADEE" d="M32,7C16.536,7,4,19.535,4,35s12.536,28,28,28c15.465,0,28-12.535,28-28S47.465,7,32,7z M32,60
		C18.192,60,7,48.808,7,35s11.192-25,25-25c13.807,0,25,11.192,25,25S45.807,60,32,60z"/>
	<path fill="#01ADEE" d="M34,35c0,1.104-0.896,2-2,2l0,0c-1.104,0-2-0.896-2-2V19c0-1.104,0.896-2,2-2l0,0c1.104,0,2,0.896,2,2V35z"
		/>
	<path fill="#01ADEE" d="M32,37c-1.104,0-2-0.896-2-2l0,0c0-1.104,0.896-2,2-2h16c1.104,0,2,0.896,2,2l0,0c0,1.104-0.896,2-2,2H32z"
		/>
</g>
</svg>
