<?xml version="1.0" encoding="utf-8"?>
<!-- Generator: Adobe Illustrator 15.0.0, SVG Export Plug-In . SVG Version: 6.00 Build 0)  -->
<!DOCTYPE svg PUBLIC "-//W3C//DTD SVG 1.1//EN" "http://www.w3.org/Graphics/SVG/1.1/DTD/svg11.dtd">
<svg version="1.1" id="Camada_1" xmlns="http://www.w3.org/2000/svg" xmlns:xlink="http://www.w3.org/1999/xlink" x="0px" y="0px"
	 width="64px" height="64px" viewBox="0 0 64 64" enable-background="new 0 0 64 64" xml:space="preserve">
<g>
	<path fill="#01ADEE" d="M14.403,26.81c-1.014,0-1.823,0.377-2.427,1.132c-0.604,0.755-0.906,1.722-0.906,2.9v2.308
		c0,1.19,0.302,2.164,0.906,2.918c0.604,0.755,1.413,1.132,2.427,1.132c1.079,0,1.936-0.376,2.569-1.127
		c0.634-0.752,0.95-1.726,0.95-2.923v-2.308c0-1.179-0.318-2.146-0.955-2.9S15.477,26.81,14.403,26.81z"/>
	<path fill="#01ADEE" d="M49.5,17.5h-35C6.492,17.5,0,23.992,0,32s6.492,14.5,14.5,14.5h35C57.508,46.5,64,40.008,64,32
		S57.508,17.5,49.5,17.5z M19.665,33.149c0,1.574-0.488,2.88-1.464,3.917c-0.976,1.038-2.241,1.557-3.798,1.557
		c-1.503,0-2.725-0.519-3.665-1.557c-0.94-1.037-1.41-2.343-1.41-3.917v-2.29c0-1.568,0.47-2.874,1.41-3.917
		c0.94-1.044,2.162-1.565,3.665-1.565c1.557,0,2.822,0.521,3.798,1.561c0.976,1.041,1.464,2.348,1.464,3.922V33.149z M32,38.438
		h-1.742L24.06,28.48l-0.053,0.018v9.939h-1.742V25.563h1.742l6.198,9.939l0.053-0.018v-9.922H32V38.438z M48.5,42.5
		C42.7,42.5,38,37.8,38,32s4.7-10.5,10.5-10.5C54.298,21.5,59,26.2,59,32S54.298,42.5,48.5,42.5z"/>
</g>
</svg>
