<?xml version="1.0" encoding="utf-8"?>
<!-- Generator: Adobe Illustrator 15.0.0, SVG Export Plug-In . SVG Version: 6.00 Build 0)  -->
<!DOCTYPE svg PUBLIC "-//W3C//DTD SVG 1.1//EN" "http://www.w3.org/Graphics/SVG/1.1/DTD/svg11.dtd">
<svg version="1.1" id="Camada_1" xmlns="http://www.w3.org/2000/svg" xmlns:xlink="http://www.w3.org/1999/xlink" x="0px" y="0px"
	 width="64px" height="64px" viewBox="0 0 64 64" enable-background="new 0 0 64 64" xml:space="preserve">
<g>
	<path fill="#01ADEE" d="M5,16c-2.762,0-5,2.238-5,5v22c0,2.762,2.238,5,5,5h15V16H5z M16,32v6l-5-4.286V38l-7-6l7-6v4.286L16,26V32
		z"/>
	<path fill="#01ADEE" d="M22,16v32h20V16H22z M35,32v6l-7-6l7-6V32z"/>
	<path fill="#01ADEE" d="M44,16v32h20V16H44z M55.949,37.734h-1.552v-9.956l-2.347,0.031v-1.118l3.898-0.426V37.734z"/>
</g>
</svg>
