<?xml version="1.0" encoding="utf-8"?>
<!-- Generator: Adobe Illustrator 15.0.0, SVG Export Plug-In . SVG Version: 6.00 Build 0)  -->
<!DOCTYPE svg PUBLIC "-//W3C//DTD SVG 1.1//EN" "http://www.w3.org/Graphics/SVG/1.1/DTD/svg11.dtd">
<svg version="1.1" id="Camada_1" xmlns="http://www.w3.org/2000/svg" xmlns:xlink="http://www.w3.org/1999/xlink" x="0px" y="0px"
	 width="64px" height="64px" viewBox="0 0 64 64" enable-background="new 0 0 64 64" xml:space="preserve">
<g>
	<path fill="#01ADEE" d="M17,32c0-0.68,0.061-1.344,0.148-2H0v4h17.148C17.061,33.344,17,32.68,17,32z"/>
	<path fill="#01ADEE" d="M19.186,24.232L3.465,17.38l-1.599,3.667l15.716,6.851C17.953,26.594,18.497,25.366,19.186,24.232z"/>
	<path fill="#01ADEE" d="M22.913,20.085L10.787,7.959l-2.829,2.828l12.127,12.126C20.898,21.849,21.849,20.898,22.913,20.085z"/>
	<path fill="#01ADEE" d="M32,17c0.68,0,1.344,0.061,2,0.148V0h-4v17.148C30.656,17.061,31.32,17,32,17z"/>
	<path fill="#01ADEE" d="M28.431,17.445L22.16,1.484l-3.723,1.463l6.267,15.951C25.859,18.254,27.112,17.768,28.431,17.445z"/>
	<path fill="#01ADEE" d="M46.555,28.432l15.961-6.271l-1.463-3.724l-15.951,6.267C45.746,25.86,46.232,27.113,46.555,28.432z"/>
	<path fill="#01ADEE" d="M39.768,19.186L46.62,3.465l-3.667-1.598l-6.851,15.715C37.407,17.953,38.635,18.496,39.768,19.186z"/>
	<path fill="#01ADEE" d="M43.915,22.913l12.127-12.126l-2.829-2.828L41.087,20.085C42.151,20.898,43.102,21.849,43.915,22.913z"/>
	<path opacity="0.8" fill="#01ADEE" d="M44.814,39.769l15.721,6.853l1.599-3.668l-15.716-6.851
		C46.047,37.407,45.503,38.635,44.814,39.769z"/>
	<path opacity="0.5" fill="#01ADEE" d="M35.568,46.555l6.271,15.962l3.724-1.464l-6.267-15.951
		C38.14,45.746,36.887,46.232,35.568,46.555z"/>
	<path opacity="0.6" fill="#01ADEE" d="M41.086,43.916l12.127,12.126l2.829-2.829L43.916,41.086
		C43.102,42.151,42.151,43.102,41.086,43.916z"/>
	<path opacity="0.9" fill="#01ADEE" d="M46.852,30C46.939,30.656,47,31.32,47,32s-0.061,1.344-0.148,2H64v-4H46.852z"/>
	<path opacity="0.2" fill="#01ADEE" d="M20.084,41.086L7.958,53.213l2.829,2.829l12.127-12.126
		C21.849,43.102,20.898,42.151,20.084,41.086z"/>
	<path opacity="0.4" fill="#01ADEE" d="M32,47c-0.68,0-1.344-0.061-2-0.148V64h4V46.852C33.344,46.939,32.68,47,32,47z"/>
	<path opacity="0.1" fill="#01ADEE" d="M17.445,35.569L1.484,41.84l1.463,3.723l15.951-6.267
		C18.254,38.141,17.768,36.888,17.445,35.569z"/>
	<path opacity="0.3" fill="#01ADEE" d="M24.231,44.814l-6.853,15.721l3.668,1.599l6.851-15.716
		C26.593,46.047,25.365,45.503,24.231,44.814z"/>
</g>
</svg>
