<?xml version="1.0" encoding="utf-8"?>
<!-- Generator: Adobe Illustrator 15.0.0, SVG Export Plug-In . SVG Version: 6.00 Build 0)  -->
<!DOCTYPE svg PUBLIC "-//W3C//DTD SVG 1.1//EN" "http://www.w3.org/Graphics/SVG/1.1/DTD/svg11.dtd">
<svg version="1.1" id="Camada_1" xmlns="http://www.w3.org/2000/svg" xmlns:xlink="http://www.w3.org/1999/xlink" x="0px" y="0px"
	 width="64px" height="64px" viewBox="0 0 64 64" enable-background="new 0 0 64 64" xml:space="preserve">
<g>
	<g>
		<path fill="#01ADEE" d="M13,4v12H1V4H13 M14,3H0v14h14V3L14,3z"/>
	</g>
	<g>
		<rect x="17" y="3" fill="#01ADEE" width="47" height="14"/>
	</g>
	<rect x="6" y="23" fill="#01ADEE" width="2" height="2"/>
	<rect x="6" y="19" fill="#01ADEE" width="2" height="2"/>
	<rect x="6" y="27" fill="#01ADEE" width="2" height="2"/>
	<rect x="6" y="31" fill="#01ADEE" width="2" height="2"/>
	<rect x="14" y="31" fill="#01ADEE" width="2" height="2"/>
	<rect x="10" y="31" fill="#01ADEE" width="2" height="2"/>
	<rect x="32" y="53" fill="#01ADEE" width="2" height="2"/>
	<rect x="28" y="53" fill="#01ADEE" width="2" height="2"/>
	<rect x="2" y="9" fill="#01ADEE" width="10" height="2"/>
	<g>
		<path fill="#01ADEE" d="M31,26v12H19V26H31 M32,25H18v14h14V25L32,25z"/>
	</g>
	<g>
		<rect x="35" y="25" fill="#01ADEE" width="29" height="14"/>
	</g>
	<g>
		<rect x="52" y="47" fill="#01ADEE" width="12" height="14"/>
	</g>
	<rect x="20" y="31" fill="#01ADEE" width="10" height="2"/>
	<rect x="24" y="45" fill="#01ADEE" width="2" height="2"/>
	<rect x="24" y="41" fill="#01ADEE" width="2" height="2"/>
	<rect x="24" y="49" fill="#01ADEE" width="2" height="2"/>
	<rect x="24" y="53" fill="#01ADEE" width="2" height="2"/>
	<g>
		<path fill="#01ADEE" d="M48,48v12H36V48H48 M49,47H35v14h14V47L49,47z"/>
	</g>
	<rect x="41" y="49" fill="#01ADEE" width="2" height="10"/>
	<rect x="37" y="53" fill="#01ADEE" width="10" height="2"/>
</g>
</svg>
