<?xml version="1.0" encoding="utf-8"?>
<!-- Generator: Adobe Illustrator 15.0.0, SVG Export Plug-In . SVG Version: 6.00 Build 0)  -->
<!DOCTYPE svg PUBLIC "-//W3C//DTD SVG 1.1//EN" "http://www.w3.org/Graphics/SVG/1.1/DTD/svg11.dtd">
<svg version="1.1" id="Camada_1" xmlns="http://www.w3.org/2000/svg" xmlns:xlink="http://www.w3.org/1999/xlink" x="0px" y="0px"
	 width="64px" height="64px" viewBox="0 0 64 64" enable-background="new 0 0 64 64" xml:space="preserve">
<g>
	<g>
		<path fill="#01ADEE" d="M28.36,38.946l-6.968-6.968l6.968-6.968c0.502-0.503,0.502-1.316,0-1.817
			c-0.502-0.503-1.315-0.503-1.817,0l-7.877,7.876c-0.502,0.502-0.502,1.316,0,1.818l7.877,7.876c0.502,0.503,1.315,0.503,1.817,0
			C28.862,40.263,28.862,39.449,28.36,38.946z"/>
		<path fill="#01ADEE" d="M35.639,38.946l6.969-6.968l-6.969-6.968c-0.502-0.503-0.502-1.316,0-1.817
			c0.502-0.503,1.316-0.503,1.818,0l7.876,7.876c0.503,0.502,0.503,1.316,0,1.818l-7.876,7.876c-0.502,0.503-1.316,0.503-1.818,0
			C35.137,40.263,35.137,39.449,35.639,38.946z"/>
	</g>
	<rect y="28" fill="#01ADEE" width="11" height="8"/>
	<path fill="#01ADEE" d="M13,32c0-6.628,5.372-12,12-12v-6c-9.941,0-18,8.059-18,18s8.059,18,18,18v-6C18.372,44,13,38.628,13,32z"
		/>
	<rect x="53" y="28" fill="#01ADEE" width="11" height="8"/>
	<path fill="#01ADEE" d="M51,32c0-6.628-5.372-12-12-12v-6c9.941,0,18,8.059,18,18s-8.059,18-18,18v-6C45.628,44,51,38.628,51,32z"
		/>
</g>
</svg>
