<?xml version="1.0" encoding="utf-8"?>
<!-- Generator: Adobe Illustrator 16.0.0, SVG Export Plug-In . SVG Version: 6.00 Build 0)  -->
<!DOCTYPE svg PUBLIC "-//W3C//DTD SVG 1.1//EN" "http://www.w3.org/Graphics/SVG/1.1/DTD/svg11.dtd">
<svg version="1.1" id="Layer_1" xmlns="http://www.w3.org/2000/svg" xmlns:xlink="http://www.w3.org/1999/xlink" x="0px" y="0px"
	 width="288.035px" height="54.739px" viewBox="0 0 288.035 54.739" enable-background="new 0 0 288.035 54.739"
	 xml:space="preserve">
<path fill="#FFFFFF" d="M110.07,46.489h-6.609L98.92,34.87H83.324l-4.229,11.619h-6.607L88.21,5.963h5.95L110.07,46.489z
	 M91.937,15.704c-0.105-0.292-0.234-0.715-0.391-1.269c-0.157-0.553-0.288-1.132-0.393-1.739h-0.125
	c-0.104,0.648-0.235,1.248-0.392,1.801c-0.156,0.553-0.308,1.019-0.454,1.394l-4.917,13.592h11.807L91.937,15.704z"/>
<path fill="#FFFFFF" d="M133.357,46.489h-19.449V5.963h6.168v35.327h13.28V46.489z"/>
<path fill="#FFFFFF" d="M158.617,46.489h-19.45V5.963h6.17v35.327h13.279V46.489z"/>
<path fill="#FFFFFF" d="M200.663,25.694c0,3.278-0.443,6.238-1.332,8.879c-0.888,2.64-2.16,4.885-3.821,6.733
	c-1.659,1.848-3.68,3.267-6.06,4.259c-2.38,0.991-5.074,1.487-8.079,1.487c-2.882,0-5.493-0.485-7.83-1.456
	c-2.339-0.971-4.333-2.349-5.982-4.134c-1.649-1.786-2.923-3.93-3.821-6.437c-0.898-2.505-1.346-5.292-1.346-8.361
	c0-3.215,0.443-6.132,1.331-8.754c0.887-2.619,2.177-4.854,3.867-6.702c1.691-1.848,3.753-3.272,6.186-4.274
	c2.433-1.003,5.194-1.504,8.284-1.504c2.819,0,5.376,0.491,7.673,1.472c2.296,0.982,4.254,2.364,5.872,4.149
	c1.618,1.785,2.866,3.92,3.743,6.404C200.225,19.942,200.663,22.687,200.663,25.694z M194.336,26.352
	c0-2.463-0.271-4.671-0.813-6.624c-0.543-1.952-1.347-3.606-2.412-4.964c-1.065-1.357-2.38-2.396-3.946-3.116
	c-1.566-0.72-3.372-1.081-5.418-1.081c-1.962,0-3.743,0.382-5.34,1.143c-1.598,0.763-2.959,1.832-4.087,3.21
	c-1.127,1.378-1.999,3.033-2.615,4.964c-0.617,1.932-0.924,4.066-0.924,6.404c0,2.338,0.292,4.468,0.877,6.389
	c0.584,1.921,1.425,3.56,2.521,4.917c1.097,1.357,2.422,2.411,3.978,3.163c1.555,0.751,3.292,1.127,5.215,1.127
	c2.045,0,3.872-0.35,5.479-1.049c1.608-0.699,2.965-1.711,4.072-3.038c1.106-1.326,1.951-2.955,2.537-4.886
	C194.043,30.982,194.336,28.794,194.336,26.352z"/>
<path fill="#FFFFFF" d="M236.069,5.963l-13.843,23.458v17.067h-6.169v-16.88L202.214,5.963h6.858l8.457,15.126
	c0.125,0.209,0.261,0.46,0.407,0.752c0.146,0.292,0.297,0.595,0.454,0.907c0.157,0.313,0.308,0.632,0.455,0.955
	c0.146,0.325,0.271,0.611,0.376,0.862c0.103-0.271,0.218-0.564,0.344-0.877c0.125-0.313,0.254-0.627,0.391-0.94
	c0.136-0.312,0.271-0.609,0.407-0.892s0.267-0.517,0.392-0.705l8.832-15.189H236.069z"/>
<path fill="#01ADEE" d="M256.163,42.011c1.524,0,2.912-0.235,4.166-0.704c1.252-0.47,2.322-1.169,3.209-2.099
	c0.888-0.928,1.577-2.098,2.068-3.507c0.489-1.409,0.735-3.053,0.735-4.933V5.963h6.107v24.053c0,2.86-0.387,5.365-1.16,7.517
	c-0.772,2.15-1.889,3.941-3.35,5.37c-1.462,1.431-3.237,2.506-5.325,3.226c-2.087,0.72-4.437,1.081-7.046,1.081
	c-2.485,0-4.725-0.35-6.718-1.049c-1.994-0.7-3.695-1.743-5.104-3.132c-1.409-1.388-2.496-3.116-3.257-5.183
	c-0.763-2.067-1.143-4.468-1.143-7.203V5.963h6.169v24.429c0,1.921,0.251,3.606,0.752,5.057c0.5,1.452,1.215,2.663,2.145,3.633
	c0.928,0.971,2.045,1.702,3.35,2.192C253.066,41.766,254.534,42.011,256.163,42.011z"/>
<path fill="#01ADEE" d="M287.53,46.489h-6.17V5.963h6.17V46.489z"/>
<g>
	<path fill="#01ADEE" d="M16.296,0.272c-3.431,7.122-3.121,15.457,0.832,22.302c1.865,3.231,4.477,5.993,7.579,8.022l-2.511-8.693
		l8.16-2.021l1.111-0.742c3.565-1.908,7.605-2.916,11.678-2.916h0.013c7.104,0.004,13.792,3.043,18.461,8.259L47.485,0H16.448
		L16.296,0.272z"/>
	<path fill="#01ADEE" d="M62.88,27.605c-4.449-6.537-11.821-10.439-19.722-10.445h-0.013c-3.743,0-7.453,0.885-10.77,2.564
		l8.803,2.18l-2.373,8.214l0.094,0.982l-0.002,0.03c-0.11,4.05-1.232,8.061-3.253,11.603c-3.558,6.239-9.601,10.576-16.537,12.006
		h28.379l15.521-26.924L62.88,27.605z"/>
	<path fill="#01ADEE" d="M15.998,54.237c7.88-0.628,14.921-5.103,18.834-11.964c1.824-3.199,2.888-6.792,3.099-10.438l-6.247,6.489
		l-6.015-6.25l-0.933-0.348l-0.041-0.023c-3.441-2.136-6.336-5.132-8.375-8.663c-3.573-6.188-4.281-13.551-2.056-20.234
		L0.087,27.375L15.602,54.25L15.998,54.237z"/>
</g>
</svg>
