<?xml version="1.0" encoding="utf-8"?>
<!-- Generator: Adobe Illustrator 15.0.0, SVG Export Plug-In . SVG Version: 6.00 Build 0)  -->
<!DOCTYPE svg PUBLIC "-//W3C//DTD SVG 1.1//EN" "http://www.w3.org/Graphics/SVG/1.1/DTD/svg11.dtd">
<svg version="1.1" id="Camada_1" xmlns="http://www.w3.org/2000/svg" xmlns:xlink="http://www.w3.org/1999/xlink" x="0px" y="0px"
	 width="64px" height="64px" viewBox="0 0 64 64" enable-background="new 0 0 64 64" xml:space="preserve">
<g>
	<polygon fill="#01ADEE" points="0,26 5,31 5,26 5,21 	"/>
	<polygon fill="#01ADEE" points="64,26 59,31 59,26 59,21 	"/>
	<path fill="#01ADEE" d="M52,3H12C9.238,3,7,5.238,7,8v36c0,2.762,2.238,5,5,5h40c2.762,0,5-2.238,5-5V8C57,5.238,54.762,3,52,3z
		 M52,43H12V9h40V43z"/>
	<rect x="10" y="52" fill="#01ADEE" width="12" height="9"/>
	<rect x="26" y="52" fill="#01ADEE" width="12" height="9"/>
	<rect x="42" y="52" fill="#01ADEE" width="12" height="9"/>
</g>
</svg>
