<?xml version="1.0" encoding="utf-8"?>
<!-- Generator: Adobe Illustrator 15.0.0, SVG Export Plug-In . SVG Version: 6.00 Build 0)  -->
<!DOCTYPE svg PUBLIC "-//W3C//DTD SVG 1.1//EN" "http://www.w3.org/Graphics/SVG/1.1/DTD/svg11.dtd">
<svg version="1.1" id="Camada_1" xmlns="http://www.w3.org/2000/svg" xmlns:xlink="http://www.w3.org/1999/xlink" x="0px" y="0px"
	 width="64px" height="64px" viewBox="0 0 64 64" enable-background="new 0 0 64 64" xml:space="preserve">
<g>
	<g>
		<path fill="#01ADEE" d="M34.972,17.992L17.547,35.418c-0.977,0.977-0.977,2.559,0,3.535s2.56,0.977,3.536,0l17.425-17.424
			L34.972,17.992z"/>
		<path fill="#01ADEE" d="M41.193,7.445L15.426,33.213c-2.171,2.172-2.171,5.691,0,7.861c2.171,2.172,5.69,2.172,7.861,0
			l25.768-25.768L41.193,7.445z M21.79,39.66c-1.367,1.367-3.583,1.367-4.95,0s-1.366-3.582,0-4.949l24.396-24.395l4.949,4.949
			L21.79,39.66z"/>
		<path fill="#01ADEE" d="M52.902,15.619c0.586-0.586,0.586-1.535,0-2.121l-9.899-9.9c-0.586-0.586-1.536-0.586-2.121,0l0,0
			c-0.586,0.586-0.586,1.535,0,2.121l9.899,9.9C51.367,16.205,52.316,16.205,52.902,15.619L52.902,15.619z"/>
		<path fill="#01ADEE" d="M51.842,12.438l2.828-2.828c1.953-1.953,1.953-5.119,0-7.072L53.963,1.83c-1.953-1.953-5.118-1.953-7.07,0
			l-2.829,2.828L51.842,12.438z"/>
		<path fill="#01ADEE" d="M15.072,39.307l-1.768,1.768c-0.586,0.586-0.586,1.537,0,2.121c0.585,0.586,1.535,0.586,2.121,0
			l1.768-1.768L15.072,39.307z"/>
	</g>
	<path fill="#01ADEE" d="M19.825,56.963c-0.411-5.838-5.96-12.328-5.96-12.328s-5.549,6.49-5.96,12.328
		c-0.024,0.221-0.04,0.445-0.04,0.672c0,3.314,2.687,6,6,6s6-2.686,6-6C19.865,57.408,19.85,57.184,19.825,56.963z"/>
</g>
</svg>
