<?xml version="1.0" encoding="utf-8"?>
<!-- Generator: Adobe Illustrator 15.0.0, SVG Export Plug-In . SVG Version: 6.00 Build 0)  -->
<!DOCTYPE svg PUBLIC "-//W3C//DTD SVG 1.1//EN" "http://www.w3.org/Graphics/SVG/1.1/DTD/svg11.dtd">
<svg version="1.1" id="Camada_1" xmlns="http://www.w3.org/2000/svg" xmlns:xlink="http://www.w3.org/1999/xlink" x="0px" y="0px"
	 width="64px" height="64px" viewBox="0 0 64 64" enable-background="new 0 0 64 64" xml:space="preserve">
<g>
	<path fill="#01ADEE" d="M59,0.5H5c-2.762,0-5,2.238-5,5v20c0,2.762,2.238,5,5,5h54c2.762,0,5-2.238,5-5v-20
		C64,2.738,61.762,0.5,59,0.5z"/>
	<path fill="none" stroke="#01ADEE" stroke-width="2" stroke-miterlimit="10" d="M46.5,44.5c-1.381,0-2.5,1.119-2.5,2.5v-2
		c0-1.381-1.119-2.5-2.5-2.5S39,43.619,39,45v-2c0-1.381-1.119-2.5-2.5-2.5S34,41.619,34,43v-8c0-1.381-1.119-2.5-2.5-2.5
		S29,33.619,29,35v13c0,0.086,0.018,0.166,0.025,0.25C29.021,48.334,29,48.414,29,48.5v2h-2.5c-1.381,0-2.5,1.119-2.5,2.5
		s1.119,2.5,2.5,2.5H29v3c0,2.762,2.238,5,5,5h10c2.762,0,5-2.238,5-5v-6v-4V47C49,45.619,47.881,44.5,46.5,44.5z"/>
</g>
</svg>
