<?xml version="1.0" encoding="utf-8"?>
<!-- Generator: Adobe Illustrator 15.0.0, SVG Export Plug-In . SVG Version: 6.00 Build 0)  -->
<!DOCTYPE svg PUBLIC "-//W3C//DTD SVG 1.1//EN" "http://www.w3.org/Graphics/SVG/1.1/DTD/svg11.dtd">
<svg version="1.1" id="Camada_1" xmlns="http://www.w3.org/2000/svg" xmlns:xlink="http://www.w3.org/1999/xlink" x="0px" y="0px"
	 width="64px" height="64px" viewBox="0 0 64 64" enable-background="new 0 0 64 64" xml:space="preserve">
<g>
	<polygon fill="#01ADEE" points="62.25,16.5 62.25,6.5 52.25,6.5 	"/>
	<polygon fill="#01ADEE" points="34.75,24 34.75,34 44.75,34 	"/>
	
		<rect x="47.721" y="5.329" transform="matrix(0.7071 0.7071 -0.7071 0.7071 28.1843 -29.1015)" fill="#01ADEE" width="3" height="28.284"/>
	<path fill="#01ADEE" d="M46.75,27.352V56h-42V4h42v12.533l3-3V5c0-2.762-2.238-5-5-5h-38c-2.762,0-5,2.238-5,5v54
		c0,2.762,2.238,5,5,5h38c2.762,0,5-2.238,5-5V24.352L46.75,27.352z M25.75,62c-1.104,0-2-0.896-2-2s0.896-2,2-2s2,0.896,2,2
		S26.854,62,25.75,62z"/>
</g>
</svg>
