<?xml version="1.0" encoding="utf-8"?>
<!-- Generator: Adobe Illustrator 15.0.0, SVG Export Plug-In . SVG Version: 6.00 Build 0)  -->
<!DOCTYPE svg PUBLIC "-//W3C//DTD SVG 1.1//EN" "http://www.w3.org/Graphics/SVG/1.1/DTD/svg11.dtd">
<svg version="1.1" id="Camada_1" xmlns="http://www.w3.org/2000/svg" xmlns:xlink="http://www.w3.org/1999/xlink" x="0px" y="0px"
	 width="64px" height="64px" viewBox="0 0 64 64" enable-background="new 0 0 64 64" xml:space="preserve">
<g>
	<path fill="#01ADEE" d="M64,14V5c0-2.762-2.238-5-5-5H5C2.238,0,0,2.238,0,5v9H64z"/>
	<path fill="#01ADEE" d="M61,21v38c0,1.104-0.896,2-2,2H5c-1.104,0-2-0.896-2-2V21H61 M64,18H0v41c0,2.762,2.238,5,5,5h54
		c2.762,0,5-2.238,5-5V18L64,18z"/>
	<rect x="7" y="35" fill="#01ADEE" width="14" height="22"/>
	<rect x="7" y="25" fill="#01ADEE" width="14" height="7"/>
	<rect x="25" y="25" fill="#01ADEE" width="14" height="7"/>
	<rect x="43" y="25" fill="#01ADEE" width="14" height="7"/>
	<rect x="43" y="35" fill="#01ADEE" width="14" height="22"/>
	<path fill="#01ADEE" d="M25,35v22h14V35H25z M32.473,48.361l-1.889,1.889l-1.89-1.889V48.36l-1.889-1.888l1.889-1.889l1.889,1.889
		l4.723-4.723l1.889,1.889L32.473,48.361z"/>
</g>
</svg>
