<?xml version="1.0" encoding="utf-8"?>
<!-- Generator: Adobe Illustrator 15.0.0, SVG Export Plug-In . SVG Version: 6.00 Build 0)  -->
<!DOCTYPE svg PUBLIC "-//W3C//DTD SVG 1.1//EN" "http://www.w3.org/Graphics/SVG/1.1/DTD/svg11.dtd">
<svg version="1.1" id="Camada_1" xmlns="http://www.w3.org/2000/svg" xmlns:xlink="http://www.w3.org/1999/xlink" x="0px" y="0px"
	 width="64px" height="64px" viewBox="0 0 64 64" enable-background="new 0 0 64 64" xml:space="preserve">
<g>
	<path fill="#01ADEE" d="M30,41.5c0,2.762-2.239,5-5,5H5c-2.761,0-5-2.238-5-5v-21c0-2.762,2.239-5,5-5h20c2.761,0,5,2.238,5,5V41.5
		z"/>
	<g>
		<path fill="#01ADEE" d="M58,21.5c1.654,0,3,1.346,3,3v17c0,1.654-1.346,3-3,3H38c-1.654,0-3-1.346-3-3v-17c0-1.654,1.346-3,3-3H58
			 M58,19.5H38c-2.762,0-5,2.238-5,5v17c0,2.762,2.238,5,5,5h20c2.762,0,5-2.238,5-5v-17C63,21.738,60.762,19.5,58,19.5L58,19.5z"/>
	</g>
	<rect y="35.5" fill="#01ADEE" width="64" height="13"/>
</g>
</svg>
