<?xml version="1.0" encoding="utf-8"?>
<!-- Generator: Adobe Illustrator 15.0.0, SVG Export Plug-In . SVG Version: 6.00 Build 0)  -->
<!DOCTYPE svg PUBLIC "-//W3C//DTD SVG 1.1//EN" "http://www.w3.org/Graphics/SVG/1.1/DTD/svg11.dtd">
<svg version="1.1" id="Camada_1" xmlns="http://www.w3.org/2000/svg" xmlns:xlink="http://www.w3.org/1999/xlink" x="0px" y="0px"
	 width="64px" height="64px" viewBox="0 0 64 64" enable-background="new 0 0 64 64" xml:space="preserve">
<g>
	<path fill="#01ADEE" d="M23.506,48.264L7.242,32l16.264-16.264c1.172-1.172,1.172-3.071,0-4.242c-1.172-1.172-3.07-1.172-4.242,0
		L0.879,29.879c-1.172,1.172-1.172,3.07,0,4.242l18.385,18.385c1.172,1.172,3.071,1.172,4.242,0
		C24.678,51.334,24.678,49.436,23.506,48.264z"/>
	<path fill="#01ADEE" d="M40.494,48.264L56.758,32L40.494,15.736c-1.172-1.172-1.172-3.071,0-4.242c1.172-1.172,3.07-1.172,4.242,0
		l18.385,18.385c1.172,1.172,1.172,3.07,0,4.242L44.736,52.506c-1.172,1.172-3.071,1.172-4.242,0
		C39.322,51.334,39.322,49.436,40.494,48.264z"/>
</g>
</svg>
