<?xml version="1.0" encoding="utf-8"?>
<!-- Generator: Adobe Illustrator 15.0.0, SVG Export Plug-In . SVG Version: 6.00 Build 0)  -->
<!DOCTYPE svg PUBLIC "-//W3C//DTD SVG 1.1//EN" "http://www.w3.org/Graphics/SVG/1.1/DTD/svg11.dtd">
<svg version="1.1" id="Camada_1" xmlns="http://www.w3.org/2000/svg" xmlns:xlink="http://www.w3.org/1999/xlink" x="0px" y="0px"
	 width="64px" height="64px" viewBox="0 0 64 64" enable-background="new 0 0 64 64" xml:space="preserve">
<g>
	<path fill="#01ADEE" d="M47,5.5H17c-2.762,0-5,2.238-5,5v30c0,2.762,2.238,5,5,5h30c2.762,0,5-2.238,5-5v-30
		C52,7.738,49.762,5.5,47,5.5z"/>
	<polygon fill="#01ADEE" points="12,53.5 17,58.5 17,53.5 17,48.5 	"/>
	<polygon fill="#01ADEE" points="52,53.5 47,58.5 47,53.5 47,48.5 	"/>
	<path fill="#01ADEE" d="M5,10.5c-2.762,0-5,2.238-5,5v20c0,2.762,2.238,5,5,5h5v-30H5z"/>
	<path fill="#01ADEE" d="M59,10.5c2.762,0,5,2.238,5,5v20c0,2.762-2.238,5-5,5h-5v-30H59z"/>
	<circle fill="#01ADEE" cx="32" cy="53.5" r="3"/>
	<circle fill="#01ADEE" cx="23" cy="53.5" r="3"/>
	<circle fill="#01ADEE" cx="41" cy="53.5" r="3"/>
</g>
</svg>
