<?xml version="1.0" encoding="utf-8"?>
<!-- Generator: Adobe Illustrator 15.0.0, SVG Export Plug-In . SVG Version: 6.00 Build 0)  -->
<!DOCTYPE svg PUBLIC "-//W3C//DTD SVG 1.1//EN" "http://www.w3.org/Graphics/SVG/1.1/DTD/svg11.dtd">
<svg version="1.1" id="Camada_1" xmlns="http://www.w3.org/2000/svg" xmlns:xlink="http://www.w3.org/1999/xlink" x="0px" y="0px"
	 width="64px" height="64px" viewBox="0 0 64 64" enable-background="new 0 0 64 64" xml:space="preserve">
<g>
	<path fill="#01ADEE" d="M59,0H5C2.238,0,0,2.238,0,5v54c0,2.762,2.238,5,5,5h54c2.762,0,5-2.238,5-5V5C64,2.238,61.762,0,59,0z
		 M15,44c-1.657,0-3-1.344-3-3s1.343-3,3-3s3,1.344,3,3S16.657,44,15,44z M16,34v2h-2v-2H16z M14,32v-2h2v2H14z M15,28
		c-1.657,0-3-1.344-3-3s1.343-3,3-3s3,1.344,3,3S16.657,28,15,28z M16,18v2h-2v-2H16z M14,16v-2h2v2H14z M15,12
		c-1.657,0-3-1.344-3-3s1.343-3,3-3s3,1.344,3,3S16.657,12,15,12z M22,42h-2v-2h2V42z M22,10h-2V8h2V10z M26,42h-2v-2h2V42z M26,10
		h-2V8h2V10z M30,42h-2v-2h2V42z M30,10h-2V8h2V10z M35,44c-1.657,0-3-1.344-3-3s1.343-3,3-3s3,1.344,3,3S36.657,44,35,44z M35,12
		c-1.657,0-3-1.344-3-3s1.343-3,3-3s3,1.344,3,3S36.657,12,35,12z M42,42h-2v-2h2V42z M42,10h-2V8h2V10z M46,42h-2v-2h2V42z M46,10
		h-2V8h2V10z M50,42h-2v-2h2V42z M50,10h-2V8h2V10z M55,44c-1.657,0-3-1.344-3-3s1.343-3,3-3s3,1.344,3,3S56.657,44,55,44z M56,34v2
		h-2v-2H56z M54,32v-2h2v2H54z M55,28c-1.657,0-3-1.344-3-3s1.343-3,3-3s3,1.344,3,3S56.657,28,55,28z M56,18v2h-2v-2H56z M54,16v-2
		h2v2H54z M55,12c-1.657,0-3-1.344-3-3s1.343-3,3-3s3,1.344,3,3S56.657,12,55,12z"/>
</g>
</svg>
