<?xml version="1.0" encoding="utf-8"?>
<!-- Generator: Adobe Illustrator 15.0.0, SVG Export Plug-In . SVG Version: 6.00 Build 0)  -->
<!DOCTYPE svg PUBLIC "-//W3C//DTD SVG 1.1//EN" "http://www.w3.org/Graphics/SVG/1.1/DTD/svg11.dtd">
<svg version="1.1" id="Camada_1" xmlns="http://www.w3.org/2000/svg" xmlns:xlink="http://www.w3.org/1999/xlink" x="0px" y="0px"
	 width="64px" height="64px" viewBox="0 0 64 64" enable-background="new 0 0 64 64" xml:space="preserve">
<g>
	<rect x="1" fill="#01ADEE" width="18" height="18"/>
	<rect x="1" y="22" fill="#01ADEE" width="18" height="29"/>
	<rect x="1" y="55" fill="#01ADEE" width="18" height="9"/>
	<rect x="23" fill="#01ADEE" width="18" height="32"/>
	<rect x="23" y="36" opacity="0.5" fill="#01ADEE" width="18" height="28"/>
	<rect x="45" fill="#01ADEE" width="18" height="24"/>
	<rect x="45" y="58" fill="#01ADEE" width="18" height="6"/>
	<rect x="45" y="28" fill="#01ADEE" width="2" height="2"/>
	<rect x="45" y="32" fill="#01ADEE" width="2" height="2"/>
	<rect x="45" y="36" fill="#01ADEE" width="2" height="2"/>
	<rect x="45" y="40" fill="#01ADEE" width="2" height="2"/>
	<rect x="45" y="44" fill="#01ADEE" width="2" height="2"/>
	<rect x="45" y="48" fill="#01ADEE" width="2" height="2"/>
	<rect x="61" y="28" fill="#01ADEE" width="2" height="2"/>
	<rect x="61" y="32" fill="#01ADEE" width="2" height="2"/>
	<rect x="61" y="36" fill="#01ADEE" width="2" height="2"/>
	<rect x="61" y="40" fill="#01ADEE" width="2" height="2"/>
	<rect x="61" y="44" fill="#01ADEE" width="2" height="2"/>
	<rect x="61" y="48" fill="#01ADEE" width="2" height="2"/>
	<rect x="45" y="52" fill="#01ADEE" width="2" height="2"/>
	<rect x="49" y="52" fill="#01ADEE" width="2" height="2"/>
	<rect x="53" y="52" fill="#01ADEE" width="2" height="2"/>
	<rect x="57" y="52" fill="#01ADEE" width="2" height="2"/>
	<rect x="49" y="28" fill="#01ADEE" width="2" height="2"/>
	<rect x="53" y="28" fill="#01ADEE" width="2" height="2"/>
	<rect x="57" y="28" fill="#01ADEE" width="2" height="2"/>
	<rect x="61" y="52" fill="#01ADEE" width="2" height="2"/>
</g>
</svg>
