<?xml version="1.0" encoding="utf-8"?>
<!-- Generator: Adobe Illustrator 15.0.0, SVG Export Plug-In . SVG Version: 6.00 Build 0)  -->
<!DOCTYPE svg PUBLIC "-//W3C//DTD SVG 1.1//EN" "http://www.w3.org/Graphics/SVG/1.1/DTD/svg11.dtd">
<svg version="1.1" id="Camada_1" xmlns="http://www.w3.org/2000/svg" xmlns:xlink="http://www.w3.org/1999/xlink" x="0px" y="0px"
	 width="64px" height="64px" viewBox="0 0 64 64" enable-background="new 0 0 64 64" xml:space="preserve">
<g>
	<path fill="#01ADEE" d="M48,16V0h16v16H48z M56,3l-6,8h12L56,3z"/>
	<path fill="#01ADEE" d="M64,48v16H48V48H64z M56,61l6-8H50L56,61z"/>
	<rect x="48" y="18" fill="#01ADEE" width="16" height="28"/>
	<path fill="#01ADEE" d="M33,15c0,2.762-2.238,5-5,5H5c-2.762,0-5-2.238-5-5V5c0-2.762,2.238-5,5-5h23c2.762,0,5,2.238,5,5V15z"/>
	<path fill="#01ADEE" d="M33,59c0,2.762-2.238,5-5,5H5c-2.762,0-5-2.238-5-5V49c0-2.762,2.238-5,5-5h23c2.762,0,5,2.238,5,5V59z"/>
	<path fill="#01ADEE" d="M33,37c0,2.762-2.238,5-5,5H5c-2.762,0-5-2.238-5-5V27c0-2.762,2.238-5,5-5h23c2.762,0,5,2.238,5,5V37z"/>
	<rect x="33" y="31" fill="#01ADEE" width="14" height="2"/>
	<rect x="37" y="26" fill="#01ADEE" width="10" height="2"/>
	<rect x="37" y="36" fill="#01ADEE" width="10" height="2"/>
	<rect x="33" y="9" fill="#01ADEE" width="4" height="2"/>
	<rect x="37" y="9" fill="#01ADEE" width="2" height="19"/>
	<rect x="37" y="37" fill="#01ADEE" width="2" height="19"/>
	<rect x="33" y="54" fill="#01ADEE" width="4" height="2"/>
</g>
</svg>
