<?xml version="1.0" encoding="utf-8"?>
<!-- Generator: Adobe Illustrator 15.0.0, SVG Export Plug-In . SVG Version: 6.00 Build 0)  -->
<!DOCTYPE svg PUBLIC "-//W3C//DTD SVG 1.1//EN" "http://www.w3.org/Graphics/SVG/1.1/DTD/svg11.dtd">
<svg version="1.1" id="Camada_1" xmlns="http://www.w3.org/2000/svg" xmlns:xlink="http://www.w3.org/1999/xlink" x="0px" y="0px"
	 width="64px" height="64px" viewBox="0 0 64 64" enable-background="new 0 0 64 64" xml:space="preserve">
<g>
	<path fill="#01ADEE" d="M59,18.5H44v27h15c2.762,0,5-2.238,5-5v-17C64,20.738,61.762,18.5,59,18.5z"/>
	<path fill="#01ADEE" d="M20,18.5H5c-2.762,0-5,2.238-5,5v17c0,2.762,2.238,5,5,5h15V18.5z"/>
	<path fill="#01ADEE" d="M22,18.5v27h20v-27H22z M38.336,34.564c-2.016,2.016-5.057,2.373-7.441,1.084l-4,4
		c-0.703,0.703-1.842,0.703-2.543,0c-0.703-0.701-0.703-1.84,0-2.543l4-4c-1.291-2.385-0.932-5.426,1.084-7.441
		c1.512-1.512,3.6-2.09,5.557-1.742l-3.014,3.014c-1.404,1.404-1.404,3.682,0,5.086s3.682,1.404,5.086,0l3.014-3.014
		C40.426,30.965,39.848,33.053,38.336,34.564z"/>
</g>
</svg>
