<?xml version="1.0" encoding="utf-8"?>
<!-- Generator: Adobe Illustrator 15.0.0, SVG Export Plug-In . SVG Version: 6.00 Build 0)  -->
<!DOCTYPE svg PUBLIC "-//W3C//DTD SVG 1.1//EN" "http://www.w3.org/Graphics/SVG/1.1/DTD/svg11.dtd">
<svg version="1.1" id="Camada_1" xmlns="http://www.w3.org/2000/svg" xmlns:xlink="http://www.w3.org/1999/xlink" x="0px" y="0px"
	 width="64px" height="64px" viewBox="0 0 64 64" enable-background="new 0 0 64 64" xml:space="preserve">
<g>
	<g>
		<path fill="#01ADEE" d="M18.49,19.247C17.151,20.211,14.706,21,13.056,21h-6c-1.65,0-3,1.35-3,3v16c0,1.65,1.35,3,3,3h6
			c1.65,0,4.096,0.789,5.435,1.753l20.13,14.494c1.339,0.964,2.435,0.403,2.435-1.247V6c0-1.65-1.096-2.211-2.435-1.247
			L18.49,19.247z"/>
	</g>
	<path fill="#01ADEE" d="M46.055,19c0,0,9,12,0,26h4c0,0,7-11,0-26H46.055z"/>
	<path fill="#01ADEE" d="M51.055,14c0,0,13,17,0,36h4c0,0,11-16,0-36H51.055z"/>
</g>
</svg>
