<?xml version="1.0" encoding="utf-8"?>
<!-- Generator: Adobe Illustrator 15.0.0, SVG Export Plug-In . SVG Version: 6.00 Build 0)  -->
<!DOCTYPE svg PUBLIC "-//W3C//DTD SVG 1.1//EN" "http://www.w3.org/Graphics/SVG/1.1/DTD/svg11.dtd">
<svg version="1.1" id="Camada_1" xmlns="http://www.w3.org/2000/svg" xmlns:xlink="http://www.w3.org/1999/xlink" x="0px" y="0px"
	 width="64px" height="64px" viewBox="0 0 64 64" enable-background="new 0 0 64 64" xml:space="preserve">
<g>
	<g>
		<path fill="#01ADEE" d="M59,3.5c1.103,0,2,0.897,2,2v9c0,1.103-0.897,2-2,2H5c-1.103,0-2-0.897-2-2v-9c0-1.103,0.897-2,2-2H59
			 M59,0.5H5c-2.762,0-5,2.238-5,5v9c0,2.762,2.238,5,5,5h54c2.762,0,5-2.238,5-5v-9C64,2.738,61.762,0.5,59,0.5L59,0.5z"/>
	</g>
	<g>
		<path fill="#01ADEE" d="M59,25.5c1.103,0,2,0.897,2,2v9c0,1.103-0.897,2-2,2H5c-1.103,0-2-0.897-2-2v-9c0-1.103,0.897-2,2-2H59
			 M59,22.5H5c-2.762,0-5,2.238-5,5v9c0,2.762,2.238,5,5,5h54c2.762,0,5-2.238,5-5v-9C64,24.738,61.762,22.5,59,22.5L59,22.5z"/>
	</g>
	<g>
		<path fill="#01ADEE" d="M35,58.5c0,2.762-2.238,5-5,5H5c-2.762,0-5-2.238-5-5v-9c0-2.762,2.238-5,5-5h25c2.762,0,5,2.238,5,5V58.5
			z"/>
	</g>
	<polygon fill="#01ADEE" points="54,29.5 50,29.5 54,34.5 58,29.5 	"/>
</g>
</svg>
