<?xml version="1.0" encoding="utf-8"?>
<!-- Generator: Adobe Illustrator 15.0.0, SVG Export Plug-In . SVG Version: 6.00 Build 0)  -->
<!DOCTYPE svg PUBLIC "-//W3C//DTD SVG 1.1//EN" "http://www.w3.org/Graphics/SVG/1.1/DTD/svg11.dtd">
<svg version="1.1" id="Camada_1" xmlns="http://www.w3.org/2000/svg" xmlns:xlink="http://www.w3.org/1999/xlink" x="0px" y="0px"
	 width="64px" height="64px" viewBox="0 0 64 64" enable-background="new 0 0 64 64" xml:space="preserve">
<g>
	<path fill="#01ADEE" d="M55,22.5c-6.076,0-11-4.925-11-11c0-0.338,0.021-0.67,0.051-1H6c-2.762,0-5,2.238-5,5v40
		c0,2.762,2.238,5,5,5h45c2.762,0,5-2.238,5-5V22.449C55.67,22.479,55.338,22.5,55,22.5z"/>
	<path fill="#01ADEE" d="M55,3.5c-4.419,0-8,3.582-8,8s3.581,8,8,8s8-3.582,8-8S59.419,3.5,55,3.5z M55,17.5c-3.314,0-6-2.686-6-6
		s2.686-6,6-6s6,2.686,6,6S58.314,17.5,55,17.5z"/>
	<g>
		
			<rect x="54" y="6.501" transform="matrix(0.7071 -0.7071 0.7071 0.7071 7.9774 42.2591)" fill="#01ADEE" width="2" height="9.999"/>
		
			<rect x="54" y="6.501" transform="matrix(-0.7071 -0.7071 0.7071 -0.7071 85.7591 58.5226)" fill="#01ADEE" width="2" height="9.999"/>
	</g>
</g>
</svg>
